<svg width="17" height="17" viewBox="0 0 17 17" fill="none" xmlns="http://www.w3.org/2000/svg">
<path d="M16.4954 6.05801L14.4057 4.31398V1.83969C14.4057 1.62606 14.2193 1.46292 14.0017 1.46292H10.9603L9.74069 0.445236C9.0221 -0.149058 7.98111 -0.149058 7.26252 0.449121L6.04286 1.46292H2.96263C2.74899 1.46292 2.55866 1.62217 2.55866 1.83969V4.35282L0.507763 6.05801C0.422309 6.13182 0.371813 6.24446 0.375697 6.3571H0.383466V15.054C0.383466 16.1261 1.24578 17 2.31395 17H14.6854C15.7574 17 16.6159 16.1222 16.6159 15.054V6.3571H16.6236C16.6314 6.24058 16.5848 6.13182 16.4954 6.05801ZM14.4057 5.32389L15.6292 6.34157L14.4057 7.25049V5.32389ZM7.75971 1.04341C8.19086 0.686062 8.81623 0.689946 9.24738 1.0473L9.74069 1.46292H7.25863L7.75971 1.04341ZM3.33552 2.23977H13.6288V7.82925L9.20466 11.1231C8.78516 11.43 8.21805 11.43 7.80243 11.1231L3.33552 7.79817V2.23977ZM2.55866 5.35885V7.21941L1.37396 6.33768L2.55866 5.35885ZM15.8429 15.0501C15.8468 15.6949 15.3302 16.2193 14.6893 16.2232H2.31395C1.67305 16.2193 1.15644 15.6949 1.16032 15.054V7.13008L7.34409 11.7485C8.03161 12.2573 8.9716 12.2573 9.65912 11.7485L15.8429 7.13008V15.0501Z" fill="white"/>
<path d="M8.19101 5.34717H6.09351C5.87987 5.34717 5.70508 5.52196 5.70508 5.7356C5.70508 5.94923 5.87987 6.12402 6.09351 6.12402H8.19101C8.40465 6.12402 8.57944 5.94923 8.57944 5.7356C8.57944 5.52196 8.40465 5.34717 8.19101 5.34717Z" fill="white"/>
<path d="M10.91 7.28931H6.09351C5.87987 7.28931 5.70508 7.4641 5.70508 7.67773C5.70508 7.89137 5.87987 8.06616 6.09351 8.06616H10.91C11.1236 8.06616 11.2984 7.89137 11.2984 7.67773C11.2984 7.4641 11.1236 7.28931 10.91 7.28931Z" fill="white"/>
</svg>
