<svg width="13" height="18" viewBox="0 0 13 18" fill="none" xmlns="http://www.w3.org/2000/svg">
<path d="M12.534 0.440442C12.249 0.309167 11.9132 0.360209 11.68 0.570202L10.5733 1.55018L9.0675 0.203253C8.76499 -0.0677511 8.30701 -0.0677511 8.0045 0.203253L6.49998 1.5489L4.9951 0.203253C4.69251 -0.0677511 4.23448 -0.0677511 3.9319 0.203253L2.42574 1.55018L1.31796 0.570242C0.991083 0.279698 0.490547 0.309167 0.200002 0.636039C0.0699234 0.782388 -0.00133682 0.971764 1.89972e-05 1.16756V15.8623C-0.00257301 16.3002 0.350379 16.6574 0.788348 16.66C0.984185 16.6611 1.17356 16.5897 1.31995 16.4596L2.4267 15.4796L3.93245 16.8266C4.23496 17.0976 4.69295 17.0976 4.99546 16.8266L6.49998 15.4808L8.00474 16.8264C8.30733 17.0974 8.76535 17.0974 9.06794 16.8264L10.5741 15.4795L11.6819 16.4595C12.0087 16.7501 12.5092 16.7207 12.7998 16.3939C12.93 16.2475 13.0013 16.058 12.9999 15.8621V1.16756C13.0039 0.853847 12.8206 0.567929 12.534 0.440442ZM11.1008 14.8822C10.7983 14.6141 10.3429 14.6153 10.0418 14.885L8.53606 16.2319L7.0315 14.8862C6.72895 14.6152 6.27092 14.6152 5.96838 14.8862L4.46366 16.2319L2.9573 14.885C2.65735 14.6154 2.20275 14.6141 1.90132 14.8821L0.79756 15.8618V13.7362L0.793572 1.16776L1.89912 2.1475C2.20167 2.41551 2.65707 2.41432 2.95818 2.14467L4.4639 0.79778L5.96846 2.14343C6.271 2.41444 6.72903 2.41444 7.03158 2.14343L8.5363 0.79778L10.0427 2.14467C10.3426 2.41428 10.7972 2.41551 11.0986 2.14754L12.2024 1.16756V11.2689L12.2064 15.8619L11.1008 14.8822Z" fill="#5F5A86"/>
<path d="M10.2799 8.11609H2.71982C2.49957 8.11609 2.32104 8.29462 2.32104 8.51486C2.32104 8.7351 2.49957 8.91363 2.71982 8.91363H10.2799C10.5002 8.91363 10.6787 8.7351 10.6787 8.51486C10.6787 8.29462 10.5001 8.11609 10.2799 8.11609Z" fill="#5F5A86"/>
<path d="M6.69101 5.72339H2.71982C2.49957 5.72339 2.32104 5.90192 2.32104 6.12216C2.32104 6.3424 2.49957 6.52093 2.71982 6.52093H6.69101C6.91125 6.52093 7.08978 6.3424 7.08978 6.12216C7.08978 5.90192 6.91121 5.72339 6.69101 5.72339Z" fill="#5F5A86"/>
<path d="M10.2799 10.5087H2.71982C2.49957 10.5087 2.32104 10.6872 2.32104 10.9074C2.32104 11.1277 2.49957 11.3062 2.71982 11.3062H10.2799C10.5002 11.3062 10.6787 11.1277 10.6787 10.9074C10.6787 10.6872 10.5001 10.5087 10.2799 10.5087Z" fill="#5F5A86"/>
</svg>
