<svg width="18" height="15" viewBox="0 0 18 15" fill="none" xmlns="http://www.w3.org/2000/svg">
<path d="M15.3633 7.88989H13.6013C13.3615 7.88989 13.1293 7.92265 12.9084 7.98291C12.4725 7.12608 11.5826 6.53735 10.5572 6.53735H7.44275C6.41735 6.53735 5.52748 7.12608 5.09161 7.98291C4.87065 7.92265 4.63848 7.88989 4.39868 7.88989H2.63672C1.18283 7.88989 0 9.07272 0 10.5266V13.3433C0 14.2156 0.709699 14.9253 1.58203 14.9253H16.418C17.2903 14.9253 18 14.2156 18 13.3433V10.5266C18 9.07272 16.8172 7.88989 15.3633 7.88989ZM4.80604 9.17414V13.8706H1.58203C1.29125 13.8706 1.05469 13.6341 1.05469 13.3433V10.5266C1.05469 9.65431 1.76439 8.94461 2.63672 8.94461H4.39868C4.54184 8.94461 4.68046 8.96405 4.81243 8.99987C4.80864 9.05756 4.80604 9.11557 4.80604 9.17414ZM12.1393 13.8706H5.86072V9.17411C5.86072 8.30178 6.57042 7.59208 7.44275 7.59208H10.5572C11.4296 7.59208 12.1393 8.30178 12.1393 9.17411V13.8706ZM16.9453 13.3433C16.9453 13.6341 16.7087 13.8706 16.418 13.8706H13.194V9.17411C13.194 9.1155 13.1914 9.05749 13.1876 8.99984C13.3195 8.96405 13.4582 8.94457 13.6013 8.94457H15.3633C16.2356 8.94457 16.9453 9.65427 16.9453 10.5266V13.3433Z" fill="#5F5A86"/>
<path d="M3.51758 2.91003C2.22563 2.91003 1.17456 3.9611 1.17456 5.25306C1.17453 6.54501 2.22563 7.59608 3.51758 7.59608C4.80951 7.59608 5.86061 6.54501 5.86061 5.25306C5.86061 3.9611 4.80954 2.91003 3.51758 2.91003ZM3.51755 6.54139C2.80715 6.54139 2.22921 5.96346 2.22921 5.25306C2.22921 4.54266 2.80715 3.96472 3.51755 3.96472C4.22795 3.96472 4.80588 4.54266 4.80588 5.25306C4.80588 5.96346 4.22795 6.54139 3.51755 6.54139Z" fill="#5F5A86"/>
<path d="M9.00011 0C7.27408 0 5.86987 1.40421 5.86987 3.13024C5.86987 4.85627 7.27408 6.26048 9.00011 6.26048C10.7261 6.26048 12.1304 4.85627 12.1304 3.13024C12.1304 1.40425 10.7261 0 9.00011 0ZM9.00011 5.2058C7.85564 5.2058 6.92456 4.27472 6.92456 3.13024C6.92456 1.9858 7.85564 1.05469 9.00011 1.05469C10.1446 1.05469 11.0757 1.98577 11.0757 3.13024C11.0757 4.27472 10.1446 5.2058 9.00011 5.2058Z" fill="#5F5A86"/>
<path d="M14.4822 2.91003C13.1903 2.91003 12.1392 3.9611 12.1392 5.25306C12.1392 6.54501 13.1903 7.59608 14.4822 7.59608C15.7741 7.59608 16.8252 6.54501 16.8252 5.25306C16.8252 3.9611 15.7741 2.91003 14.4822 2.91003ZM14.4822 6.54139C13.7718 6.54139 13.1938 5.96346 13.1938 5.25306C13.1939 4.54266 13.7718 3.96472 14.4822 3.96472C15.1926 3.96472 15.7705 4.54266 15.7705 5.25306C15.7705 5.96346 15.1926 6.54139 14.4822 6.54139Z" fill="#5F5A86"/>
</svg>
