<svg width="14" height="17" viewBox="0 0 14 17" fill="none" xmlns="http://www.w3.org/2000/svg">
<path d="M3.46284 6.61147H5.98126C6.19859 6.61147 6.37477 6.4353 6.37477 6.21797C6.37477 6.00063 6.19859 5.82446 5.98126 5.82446H3.46284C3.24551 5.82446 3.06934 6.00063 3.06934 6.21797C3.06934 6.4353 3.24555 6.61147 3.46284 6.61147Z" fill="#5F5A86"/>
<path d="M8.34233 8.3822H3.46284C3.24551 8.3822 3.06934 8.55837 3.06934 8.77571C3.06934 8.99304 3.24551 9.16921 3.46284 9.16921H8.3423C8.55963 9.16921 8.7358 8.99304 8.7358 8.77571C8.7358 8.55837 8.55963 8.3822 8.34233 8.3822Z" fill="#5F5A86"/>
<path d="M8.34233 10.9401H3.46284C3.24551 10.9401 3.06934 11.1162 3.06934 11.3336C3.06934 11.5509 3.24551 11.7271 3.46284 11.7271H8.3423C8.55963 11.7271 8.7358 11.5509 8.7358 11.3336C8.7358 11.1162 8.55963 10.9401 8.34233 10.9401Z" fill="#5F5A86"/>
<path d="M13.9694 13.8913V1.49589C14.0023 0.703337 13.3865 0.0341619 12.594 0.00124733C12.5606 -0.000146083 12.5272 -0.000372041 12.4938 0.000569451H4.03339C3.16767 0.000569451 2.361 0.630164 2.361 1.49589V2.16483H1.67239C0.772174 2.18461 0.041162 2.89841 0 3.79787V16.213C0.0256086 16.4528 0.174892 16.6618 0.393506 16.7639C0.619803 16.8638 0.884061 16.8172 1.06246 16.6458L2.26263 15.5637L3.69894 16.8425C3.80608 16.9419 3.94632 16.998 4.09244 17C4.23784 16.9945 4.37692 16.9389 4.48595 16.8425L5.90255 15.5637L7.31916 16.8425C7.54324 17.043 7.8821 17.043 8.10617 16.8425L9.54248 15.5637L10.723 16.6458C10.8659 16.8217 11.1137 16.8713 11.3132 16.7639C11.5087 16.6517 11.6233 16.4379 11.6084 16.213V13.4191L11.8445 13.242L13.0446 14.3241C13.1556 14.43 13.3045 14.4867 13.4578 14.4815C13.5258 14.4877 13.5941 14.474 13.6545 14.4422C13.8614 14.3392 13.9857 14.1217 13.9694 13.8913ZM10.8214 15.7801L9.89663 14.8751C9.68826 14.6621 9.3483 14.6534 9.12927 14.8554L7.69297 16.1343L6.29602 14.8554C6.066 14.6712 5.73904 14.6712 5.50901 14.8554L4.0924 16.1343L2.6561 14.8554C2.40796 14.652 2.0485 14.6604 1.81008 14.8751L0.786975 15.7801V3.79791C0.826329 3.33289 1.20601 2.97007 1.67235 2.95188H10.1327C10.5656 2.95188 10.8214 3.36505 10.8214 3.79791V15.7801ZM13.1824 1.49589V13.4584L12.1987 12.5534C12.0412 12.396 12.0019 12.3566 11.6084 12.4157V3.79791C11.6084 2.93219 10.9985 2.16487 10.1328 2.16487H3.14801V1.49589C3.14801 1.06302 3.60053 0.787582 4.03339 0.787582H12.4938C12.8516 0.764308 13.1606 1.0355 13.1838 1.39334C13.1861 1.4275 13.1856 1.4618 13.1824 1.49589Z" fill="#5F5A86"/>
</svg>
