<svg width="17" height="16" viewBox="0 0 17 16" fill="none" xmlns="http://www.w3.org/2000/svg">
<path d="M15.591 6.82251V5.00356C15.5913 4.80263 15.5519 4.60363 15.4752 4.41794C15.3984 4.23225 15.2858 4.06353 15.1437 3.92146C15.0016 3.77938 14.8329 3.66674 14.6472 3.58998C14.4615 3.51323 14.2625 3.47387 14.0616 3.47416H13.0667L4.93715 0.0886887C4.79892 0.0303052 4.65041 0.000151348 4.50036 5.68278e-07C4.3503 -0.000150212 4.20173 0.0297051 4.06339 0.0878107C3.92504 0.145916 3.79971 0.231099 3.69476 0.338349C3.58982 0.445599 3.50738 0.572752 3.45229 0.712328L2.34607 3.47416H1.5294C1.32848 3.47387 1.12947 3.51323 0.94378 3.58998C0.758092 3.66674 0.589375 3.77938 0.447299 3.92146C0.305223 4.06353 0.192579 4.23225 0.115823 4.41794C0.0390674 4.60363 -0.000291625 4.80263 1.62669e-06 5.00356V13.8236C-0.000291625 14.0245 0.0390674 14.2235 0.115823 14.4092C0.192579 14.5949 0.305223 14.7636 0.447299 14.9057C0.589375 15.0478 0.758092 15.1604 0.94378 15.2372C1.12947 15.3139 1.32848 15.3533 1.5294 15.353H14.0616C14.2625 15.3533 14.4615 15.3139 14.6472 15.2372C14.8329 15.1604 15.0016 15.0478 15.1437 14.9057C15.2858 14.7636 15.3984 14.5949 15.4752 14.4092C15.5519 14.2235 15.5913 14.0245 15.591 13.8236V12.0047C15.7895 11.9978 15.9777 11.9143 16.1161 11.7717C16.2545 11.6292 16.3324 11.4386 16.3334 11.24V7.58721C16.3324 7.38854 16.2545 7.19797 16.1161 7.05542C15.9777 6.91288 15.7895 6.82941 15.591 6.82251ZM4.14275 0.987026C4.16056 0.938677 4.18824 0.894564 4.22403 0.857497C4.25982 0.820429 4.30293 0.791218 4.35063 0.771722C4.44615 0.734667 4.55208 0.734667 4.6476 0.771722L11.1364 3.47416H9.33974L4.94457 2.01158C4.8539 1.98001 4.75452 1.98481 4.66731 2.02495C4.5801 2.0651 4.51183 2.13747 4.47684 2.22688L3.99426 3.47416H3.1479L4.14275 0.987026ZM6.99367 3.47416H4.79609L5.04109 2.82825L6.99367 3.47416ZM14.8486 13.8236C14.8484 14.0323 14.7654 14.2323 14.6178 14.3799C14.4703 14.5274 14.2702 14.6104 14.0616 14.6106H1.5294C1.32075 14.6104 1.12069 14.5274 0.973146 14.3799C0.825602 14.2323 0.742626 14.0323 0.74243 13.8236V5.00356C0.743792 4.79526 0.827142 4.59588 0.974434 4.44859C1.12173 4.3013 1.32111 4.21795 1.5294 4.21659H14.0616C14.2699 4.21795 14.4693 4.3013 14.6166 4.44859C14.7638 4.59588 14.8472 4.79526 14.8486 5.00356V6.81509H11.5076C10.8185 6.81509 10.1575 7.08885 9.67022 7.57617C9.18291 8.06348 8.90914 8.72442 8.90914 9.41358C8.90914 10.1027 9.18291 10.7637 9.67022 11.251C10.1575 11.7383 10.8185 12.0121 11.5076 12.0121H14.8486V13.8236ZM15.591 11.24C15.5905 11.2477 15.5872 11.2549 15.5817 11.2604C15.5763 11.2658 15.569 11.2691 15.5613 11.2697H11.5076C11.0154 11.2697 10.5433 11.0741 10.1952 10.726C9.84711 10.3779 9.65156 9.90584 9.65156 9.41358C9.65156 8.92132 9.84711 8.44922 10.1952 8.10114C10.5433 7.75306 11.0154 7.55751 11.5076 7.55751L15.591 7.58721V11.24Z" fill="#5F5A86"/>
<path d="M11.5074 8.30005C11.2872 8.30005 11.0719 8.36536 10.8887 8.48773C10.7056 8.6101 10.5629 8.78403 10.4786 8.98752C10.3943 9.19101 10.3722 9.41493 10.4152 9.63095C10.4582 9.84698 10.5642 10.0454 10.72 10.2012C10.8757 10.3569 11.0742 10.463 11.2902 10.5059C11.5062 10.5489 11.7301 10.5269 11.9336 10.4426C12.1371 10.3583 12.311 10.2155 12.4334 10.0324C12.5558 9.84926 12.6211 9.63395 12.6211 9.41369C12.6211 9.11833 12.5038 8.83508 12.2949 8.62623C12.0861 8.41738 11.8028 8.30005 11.5074 8.30005ZM11.5074 9.7849C11.434 9.7849 11.3623 9.76313 11.3012 9.72234C11.2402 9.68155 11.1926 9.62358 11.1645 9.55575C11.1364 9.48792 11.129 9.41328 11.1434 9.34127C11.1577 9.26926 11.193 9.20312 11.245 9.1512C11.2969 9.09929 11.363 9.06393 11.435 9.04961C11.507 9.03529 11.5817 9.04264 11.6495 9.07073C11.7173 9.09883 11.7753 9.14641 11.8161 9.20746C11.8569 9.2685 11.8787 9.34027 11.8787 9.41369C11.8787 9.51214 11.8395 9.60656 11.7699 9.67618C11.7003 9.74579 11.6059 9.7849 11.5074 9.7849Z" fill="#5F5A86"/>
<path d="M4.45458 6.07263C4.45458 6.17108 4.41547 6.2655 4.34585 6.33512C4.27624 6.40473 4.18182 6.44384 4.08336 6.44384H2.59851C2.50006 6.44384 2.40564 6.40473 2.33602 6.33512C2.2664 6.2655 2.22729 6.17108 2.22729 6.07263C2.22729 5.97418 2.2664 5.87976 2.33602 5.81014C2.40564 5.74053 2.50006 5.70142 2.59851 5.70142H4.08336C4.18182 5.70142 4.27624 5.74053 4.34585 5.81014C4.41547 5.87976 4.45458 5.97418 4.45458 6.07263Z" fill="#5F5A86"/>
<path d="M5.93943 7.55762C5.93943 7.65607 5.90033 7.75049 5.83071 7.8201C5.76109 7.88972 5.66667 7.92883 5.56822 7.92883H2.59851C2.50006 7.92883 2.40564 7.88972 2.33602 7.8201C2.2664 7.75049 2.22729 7.65607 2.22729 7.55762C2.22729 7.45916 2.2664 7.36474 2.33602 7.29513C2.40564 7.22551 2.50006 7.1864 2.59851 7.1864H5.56822C5.66667 7.1864 5.76109 7.22551 5.83071 7.29513C5.90033 7.36474 5.93943 7.45916 5.93943 7.55762Z" fill="#5F5A86"/>
</svg>
