<svg width="17" height="17" viewBox="0 0 17 17" fill="none" xmlns="http://www.w3.org/2000/svg">
<path d="M13.7975 8.11825C13.3429 7.5268 12.8072 7.06979 12.1511 6.71641C12.7361 6.06138 13.0922 5.19787 13.0922 4.25264C13.0922 2.21075 11.431 0.549561 9.38915 0.549561C8.7561 0.549561 8.14224 0.709334 7.59505 1.01311C7.06367 0.717967 6.45263 0.549561 5.80288 0.549561C3.76098 0.549561 2.0998 2.21075 2.0998 4.25264C2.0998 5.20085 2.45819 6.06682 3.04642 6.72259C1.17343 7.772 0 9.87675 0 12.292V16.4505H12.7708C15.1028 16.4505 17 14.5532 17 12.2212C17 10.2432 15.635 8.57824 13.7975 8.11825ZM10.5721 8.60965C10.4138 8.35495 10.2384 8.11738 10.0459 7.89735C10.5024 7.8153 10.9301 7.64929 11.3125 7.41597C11.6891 7.58112 12.0209 7.77904 12.3162 8.01645C11.6829 8.08441 11.0909 8.29266 10.5721 8.60965ZM12.0962 4.25264C12.0962 5.74529 10.8818 6.95962 9.38918 6.95962C9.22449 6.95962 9.0604 6.94455 8.8997 6.9153C8.79079 6.84604 8.6788 6.78019 8.56368 6.71777C9.14935 6.06257 9.50599 5.19853 9.50599 4.25267C9.50599 3.26455 9.11695 2.36557 8.484 1.70088C8.77223 1.59868 9.07747 1.54569 9.38918 1.54569C10.8818 1.54565 12.0962 2.75999 12.0962 4.25264ZM5.80294 1.54565C7.29559 1.54565 8.50993 2.75999 8.50993 4.25264C8.50993 5.74529 7.29559 6.95962 5.80294 6.95962C4.3103 6.95962 3.09596 5.74529 3.09596 4.25264C3.09596 2.75999 4.3103 1.54565 5.80294 1.54565ZM0.996094 15.4544V12.292C0.996094 10.0954 2.12062 8.21148 3.88125 7.41696C4.44181 7.75866 5.0998 7.95568 5.80294 7.95568C6.50692 7.95568 7.16563 7.75816 7.72663 7.4157C8.62332 7.80982 9.3004 8.40678 9.7838 9.22992C9.01671 9.99592 8.5415 11.0541 8.5415 12.2212C8.5415 13.5168 9.12727 14.678 10.0477 15.4543H0.996094V15.4544ZM12.7708 15.4544C10.988 15.4544 9.5376 14.004 9.5376 12.2212C9.5376 10.4385 10.988 8.98807 12.7708 8.98807C14.5535 8.98807 16.0039 10.4384 16.0039 12.2212C16.0039 14.004 14.5535 15.4544 12.7708 15.4544Z" fill="#5F5A86"/>
<path d="M13.2689 10.3103H12.2728V11.7232H10.8599V12.7193H12.2728V14.1322H13.2689V12.7193H14.6818V11.7232H13.2689V10.3103Z" fill="#5F5A86"/>
</svg>
