<svg width="112" height="112" viewBox="0 0 112 112" fill="none" xmlns="http://www.w3.org/2000/svg">
<path d="M103.372 70.3577C101.831 70.3577 100.582 71.6064 100.582 73.1471V97.9138C100.577 102.534 96.834 106.278 92.2141 106.282H13.9469C9.32699 106.278 5.58421 102.534 5.57876 97.9138V25.2253C5.58421 20.6065 9.32699 16.8627 13.9469 16.8572H38.7135C40.2542 16.8572 41.5029 15.6085 41.5029 14.0678C41.5029 12.5282 40.2542 11.2784 38.7135 11.2784H13.9469C6.24778 11.2872 0.00871681 17.5262 0 25.2253V97.9148C0.00871681 105.614 6.24778 111.853 13.9469 111.862H92.2141C99.9132 111.853 106.152 105.614 106.161 97.9148V73.1471C106.161 71.6064 104.912 70.3577 103.372 70.3577V70.3577Z" fill="black"/>
<path d="M105.056 4.10115C100.154 -0.800969 92.2064 -0.800969 87.3043 4.10115L37.54 53.8654C37.199 54.2065 36.9527 54.6292 36.8242 55.0934L30.28 78.7192C30.0109 79.6879 30.2844 80.7252 30.9948 81.4367C31.7063 82.1471 32.7436 82.4206 33.7123 82.1526L57.3381 75.6073C57.8023 75.4788 58.225 75.2325 58.5661 74.8915L108.329 25.1261C113.224 20.2207 113.224 12.2797 108.329 7.37431L105.056 4.10115ZM43.6178 55.6785L84.346 14.9492L97.4812 28.0844L56.7519 68.8137L43.6178 55.6785ZM40.9941 60.9435L51.488 71.4385L36.9723 75.4603L40.9941 60.9435ZM104.385 21.1817L101.427 24.14L88.2904 11.0038L91.2498 8.04551C93.9727 5.32259 98.3877 5.32259 101.111 8.04551L104.385 11.3187C107.103 14.0449 107.103 18.4567 104.385 21.1817V21.1817Z" fill="black"/>
</svg>
