<svg width="17" height="17" viewBox="0 0 17 17" fill="none" xmlns="http://www.w3.org/2000/svg">
<path d="M10.3122 7.99244C11.0738 7.3908 11.5632 6.46154 11.5632 5.42056C11.5632 3.61099 10.0847 2.13879 8.26745 2.13879C6.45017 2.13879 4.9717 3.61099 4.9717 5.42056C4.9717 5.53916 4.97821 5.6563 4.9906 5.77168C4.616 5.56712 4.18638 5.45054 3.72984 5.45054C2.2791 5.45054 1.09886 6.62603 1.09886 8.0709C1.09886 8.82421 1.42013 9.50381 1.93282 9.98227C0.796045 10.4814 0 11.6177 0 12.9367V15.9838C0 16.5442 0.455879 17 1.01625 17H4.70814H5.04017H11.8267C12.4761 17 13.0045 16.4717 13.0045 15.8223V11.8256C13.0045 10.0638 11.8806 8.55985 10.3122 7.99244ZM8.26745 3.13489C9.53547 3.13489 10.5671 4.16023 10.5671 5.42056C10.5671 6.68088 9.53547 7.70623 8.26745 7.70623C6.99942 7.70623 5.9678 6.68088 5.9678 5.42056C5.9678 4.16023 6.99942 3.13489 8.26745 3.13489ZM3.72984 6.44663C4.63134 6.44663 5.36476 7.17528 5.36476 8.0709C5.36476 8.20079 5.34909 8.32968 5.31874 8.45443C4.86071 8.76607 4.46917 9.16846 4.17028 9.63563C4.02774 9.67514 3.88015 9.69519 3.72984 9.69519C2.82838 9.69519 2.09495 8.96655 2.09495 8.0709C2.09495 7.17531 2.82838 6.44663 3.72984 6.44663ZM0.996094 15.9838V12.9367C0.996094 11.7077 1.99594 10.7079 3.22492 10.7079H3.68628C3.58478 11.0632 3.53039 11.4381 3.53039 11.8256V15.8223C3.53039 15.8841 3.53524 15.9447 3.54443 16.004H1.01625C1.00629 16.004 0.996094 15.9938 0.996094 15.9838ZM12.0084 15.8223C12.0084 15.9207 11.9252 16.004 11.8267 16.004H5.0402H4.70817C4.60969 16.004 4.52648 15.9207 4.52648 15.8223V11.8256C4.52648 10.128 5.90757 8.74691 7.60514 8.74691H8.92971C10.6273 8.74691 12.0084 10.128 12.0084 11.8256V15.8223Z" fill="white"/>
<path d="M16.502 1.40642H15.5866V0.498047C15.5866 0.222992 15.3636 0 15.0885 0C14.8135 0 14.5905 0.222992 14.5905 0.498047V1.40642H13.675C13.4 1.40642 13.177 1.62941 13.177 1.90446C13.177 2.17952 13.4 2.40251 13.675 2.40251H14.5905V3.31092C14.5905 3.58597 14.8135 3.80896 15.0885 3.80896C15.3636 3.80896 15.5866 3.58597 15.5866 3.31092V2.40251H16.502C16.7771 2.40251 17 2.17952 17 1.90446C17 1.62941 16.7771 1.40642 16.502 1.40642Z" fill="white"/>
</svg>
