<svg width="17" height="17" viewBox="0 0 17 17" fill="none" xmlns="http://www.w3.org/2000/svg">
<path d="M13.0476 6.62718C13.8764 5.93981 14.4051 4.90271 14.4051 3.74438C14.4051 1.67975 12.7254 0 10.6607 0C8.59602 0 6.91631 1.67975 6.91631 3.74438C6.91631 4.01426 6.94526 4.27746 6.99978 4.5313C6.78655 4.49345 6.56721 4.47362 6.34329 4.47362C4.27862 4.47362 2.59891 6.15337 2.59891 8.21801C2.59891 9.37623 3.1276 10.4132 3.95622 11.1006C1.63821 12.0457 0 14.3236 0 16.9773H1.32842C1.32842 14.212 3.57807 11.9624 6.34326 11.9624C8.40793 11.9624 10.0876 10.2827 10.0876 8.21804C10.0876 7.94816 10.0587 7.68493 10.0042 7.43109C10.2174 7.46894 10.4367 7.48877 10.6607 7.48877C12.2902 7.48877 13.7401 8.2705 14.6567 9.47816L15.5568 8.47589C14.8915 7.66846 14.0306 7.02811 13.0476 6.62718ZM6.34329 10.634C5.01115 10.634 3.92733 9.55018 3.92733 8.21801C3.92733 6.88583 5.01115 5.80205 6.34329 5.80205C7.67543 5.80205 8.75925 6.88586 8.75925 8.21801C8.75925 9.55015 7.67543 10.634 6.34329 10.634ZM10.6607 6.16031C9.32855 6.16031 8.24473 5.07653 8.24473 3.74435C8.24473 2.41217 9.32855 1.32842 10.6607 1.32842C11.9928 1.32842 13.0767 2.41221 13.0767 3.74438C13.0767 5.07659 11.9929 6.16031 10.6607 6.16031Z" fill="white"/>
<path d="M16.0116 9.95776L11.3976 15.095L8.79381 12.6164L7.87793 13.5786L11.4722 17L16.9999 10.8454L16.0116 9.95776Z" fill="white"/>
</svg>
