<svg width="15" height="10" viewBox="0 0 15 10" fill="none" xmlns="http://www.w3.org/2000/svg">
<path d="M12.7075 4.54625C13.115 4.25816 13.3848 3.77893 13.3848 3.23877C13.3848 2.35511 12.6745 1.64043 11.7962 1.64043C10.9179 1.64043 10.2075 2.35511 10.2075 3.23877C10.2075 3.77893 10.4746 4.25816 10.8848 4.54625C10.5352 4.66813 10.2158 4.85649 9.94595 5.10026C9.57425 4.7817 9.13648 4.53794 8.65741 4.39389C9.23835 4.03932 9.62932 3.39389 9.62932 2.65982C9.62932 1.54071 8.72899 0.634888 7.61666 0.634888C6.50433 0.634888 5.604 1.54348 5.604 2.65982C5.604 3.39389 5.99222 4.03932 6.57592 4.39389C6.10235 4.53794 5.67008 4.77893 5.30114 5.09195C5.03132 4.85372 4.71744 4.66813 4.37328 4.54902C4.78077 4.26093 5.05059 3.7817 5.05059 3.24154C5.05059 2.35788 4.34024 1.6432 3.46194 1.6432C2.58364 1.6432 1.87329 2.35788 1.87329 3.24154C1.87329 3.7817 2.14036 4.26093 2.5506 4.54902C1.45754 4.92852 0.672852 5.97284 0.672852 7.19999V7.38281C0.672852 7.38835 0.678358 7.39389 0.683865 7.39389H4.05114C4.03187 7.54625 4.02086 7.70414 4.02086 7.86204V8.0504C4.02086 8.86481 4.67614 9.52409 5.48561 9.52409H9.75322C10.5627 9.52409 11.218 8.86481 11.218 8.0504V7.86204C11.218 7.70414 11.207 7.54625 11.1877 7.39389H14.577C14.5825 7.39389 14.588 7.38835 14.588 7.38281V7.19999C14.5825 5.97007 13.8006 4.92575 12.7075 4.54625ZM10.648 3.236C10.648 2.59888 11.1629 2.08087 11.7962 2.08087C12.4294 2.08087 12.9443 2.59888 12.9443 3.236C12.9443 3.8648 12.4404 4.37727 11.8182 4.39112C11.8099 4.39112 11.8044 4.39112 11.7962 4.39112C11.7879 4.39112 11.7824 4.39112 11.7741 4.39112C11.1491 4.38004 10.648 3.86757 10.648 3.236ZM6.03902 2.65982C6.03902 1.78724 6.74387 1.0781 7.61115 1.0781C8.47844 1.0781 9.18329 1.78724 9.18329 2.65982C9.18329 3.50192 8.52525 4.19167 7.70201 4.23877C7.67173 4.23877 7.64144 4.23877 7.61115 4.23877C7.58087 4.23877 7.55058 4.23877 7.5203 4.23877C6.69706 4.19167 6.03902 3.50192 6.03902 2.65982ZM2.30556 3.236C2.30556 2.59888 2.82042 2.08087 3.45368 2.08087C4.08694 2.08087 4.6018 2.59888 4.6018 3.236C4.6018 3.8648 4.09795 4.37727 3.47571 4.39112C3.46745 4.39112 3.46194 4.39112 3.45368 4.39112C3.44542 4.39112 3.43991 4.39112 3.43165 4.39112C2.80941 4.38004 2.30556 3.86757 2.30556 3.236ZM4.12824 6.94791H1.11889C1.24278 5.76785 2.23397 4.84264 3.43716 4.83433C3.44267 4.83433 3.44817 4.83433 3.45368 4.83433C3.45919 4.83433 3.46469 4.83433 3.4702 4.83433C4.04288 4.8371 4.56601 5.0504 4.97075 5.39666C4.57427 5.82879 4.27967 6.36065 4.12824 6.94791ZM10.7719 8.0504C10.7719 8.61827 10.3121 9.08087 9.74771 9.08087H5.4801C4.91568 9.08087 4.45588 8.61827 4.45588 8.0504V7.86204C4.45588 6.14181 5.82151 4.73461 7.5203 4.68475C7.55058 4.68752 7.58362 4.68752 7.61391 4.68752C7.64419 4.68752 7.67723 4.68752 7.70752 4.68475C9.4063 4.73461 10.7719 6.14181 10.7719 7.86204V8.0504ZM11.0996 6.94791C10.9481 6.36342 10.6591 5.83987 10.2653 5.40774C10.6728 5.05317 11.2015 4.83987 11.7796 4.83433C11.7851 4.83433 11.7907 4.83433 11.7962 4.83433C11.8017 4.83433 11.8072 4.83433 11.8127 4.83433C13.0159 4.84264 14.0071 5.76785 14.131 6.94791H11.0996Z" fill="#63719A"/>
</svg>
