<svg width="17" height="17" viewBox="0 0 17 17" fill="none" xmlns="http://www.w3.org/2000/svg">
<path d="M8.5 16.7344C3.95781 16.7344 0.265625 13.0422 0.265625 8.50002C0.265625 6.00315 1.38125 3.69221 3.29375 2.09846C3.53281 1.91252 3.85156 1.93909 4.0375 2.17815C4.22344 2.41721 4.19687 2.73596 3.95781 2.9219C2.28437 4.30315 1.32812 6.3219 1.32812 8.50002C1.32812 12.4578 4.54219 15.6719 8.5 15.6719C12.4578 15.6719 15.6719 12.4578 15.6719 8.50002C15.6719 6.3219 14.7156 4.30315 13.0156 2.94846C12.7766 2.76252 12.75 2.41721 12.9359 2.20471C13.1219 1.96565 13.4672 1.93909 13.6797 2.12502C15.6188 3.69221 16.7344 6.00315 16.7344 8.50002C16.7344 13.0422 13.0422 16.7344 8.5 16.7344Z" fill="#5F5A86"/>
<path d="M8.5 9.03125C8.20781 9.03125 7.96875 8.79219 7.96875 8.5V0.796875C7.96875 0.504687 8.20781 0.265625 8.5 0.265625C8.79219 0.265625 9.03125 0.504687 9.03125 0.796875V8.5C9.03125 8.79219 8.79219 9.03125 8.5 9.03125Z" fill="#5F5A86"/>
</svg>
