<svg width="16" height="16" viewBox="0 0 16 16" fill="none" xmlns="http://www.w3.org/2000/svg">
<path d="M15.4994 7.49997H9.16624C8.89025 7.49997 8.66626 7.27598 8.66626 6.99998C8.66626 6.72399 8.89025 6.5 9.16624 6.5H15.4994C15.7754 6.5 15.9994 6.72399 15.9994 6.99998C15.9994 7.27598 15.7754 7.49997 15.4994 7.49997Z" fill="#5F5A86"/>
<path d="M12.9996 10C12.8716 10 12.7436 9.95132 12.6462 9.85342C12.4509 9.658 12.4509 9.34136 12.6462 9.14605L14.7929 6.99951L12.6462 4.85285C12.4509 4.65754 12.4509 4.3409 12.6462 4.14559C12.8417 3.95017 13.1583 3.95017 13.3536 4.14559L15.8535 6.64552C16.0488 6.84082 16.0488 7.15746 15.8535 7.35277L13.3536 9.85269C13.2556 9.95132 13.1277 10 12.9996 10Z" fill="#5F5A86"/>
<path d="M5.33321 15.9995C5.19051 15.9995 5.05514 15.9795 4.91989 15.9375L0.90793 14.6009C0.362049 14.4102 0 13.9015 0 13.333V1.33333C0 0.598004 0.598004 0 1.33333 0C1.47591 0 1.61128 0.0200189 1.74665 0.0620098L5.75849 1.39864C6.30449 1.58931 6.66642 2.09796 6.66642 2.66654V14.6662C6.66642 15.4015 6.06854 15.9995 5.33321 15.9995ZM1.33333 0.999969C1.14999 0.999969 0.999969 1.14999 0.999969 1.33333V13.333C0.999969 13.4749 1.0953 13.6069 1.23128 13.6542L5.22445 14.9849C5.25313 14.9942 5.29048 14.9995 5.33321 14.9995C5.51655 14.9995 5.66645 14.8495 5.66645 14.6662V2.66654C5.66645 2.52458 5.57111 2.39263 5.43513 2.34526L1.44197 1.01462C1.41329 1.00534 1.37593 0.999969 1.33333 0.999969Z" fill="#5F5A86"/>
<path d="M10.1662 5.33345C9.89022 5.33345 9.66623 5.10946 9.66623 4.83347V1.83356C9.66623 1.37422 9.29234 1.00021 8.833 1.00021H1.33324C1.05724 1.00021 0.833252 0.776221 0.833252 0.500228C0.833252 0.224236 1.05724 0.000244141 1.33324 0.000244141H8.833C9.84432 0.000244141 10.6662 0.82224 10.6662 1.83356V4.83347C10.6662 5.10946 10.4422 5.33345 10.1662 5.33345Z" fill="#5F5A86"/>
<path d="M8.83315 13.9998H6.16649C5.8905 13.9998 5.6665 13.7758 5.6665 13.4998C5.6665 13.2239 5.8905 12.9999 6.16649 12.9999H8.83315C9.29249 12.9999 9.66638 12.6259 9.66638 12.1665V9.16661C9.66638 8.89062 9.89037 8.66663 10.1664 8.66663C10.4424 8.66663 10.6663 8.89062 10.6663 9.16661V12.1665C10.6663 13.1778 9.84447 13.9998 8.83315 13.9998Z" fill="#5F5A86"/>
</svg>
