<svg width="44" height="29" viewBox="0 0 44 29" fill="none" xmlns="http://www.w3.org/2000/svg">
<g clip-path="url(#clip0_213_34)">
<path d="M0 0H44V29H0V0Z" fill="#006C35"/>
<path d="M28.4336 21.557H27.8225C27.7546 21.6451 27.6485 21.75 27.5891 21.75C27.517 21.75 27.3218 21.5528 27.3218 21.4815C27.3218 21.4269 27.4151 21.322 27.5 21.2549V21.0913H16.4236C14.9637 21.0913 14.238 21.0787 13.75 20.5962H27.5V20.4326C27.4194 20.3696 27.3218 20.2606 27.3218 20.206C27.3218 20.1347 27.517 19.9375 27.5891 19.9375C27.6613 19.9375 27.8565 20.1347 27.8565 20.206C27.8565 20.2606 27.7589 20.3696 27.6782 20.4326V20.5962H29.5455C30.0463 20.5962 30.25 20.6382 30.25 21.0913C30.25 21.5738 30.1184 21.6619 29.9105 21.6619C29.8383 21.6619 29.7195 21.6577 29.6304 21.557H28.9047C28.8855 21.5878 28.8529 21.6141 28.811 21.6326C28.769 21.6512 28.7197 21.6611 28.6692 21.6611C28.6187 21.6611 28.5693 21.6512 28.5274 21.6326C28.4855 21.6141 28.4528 21.5878 28.4336 21.557V21.557ZM28.9047 21.406H29.5455C29.5116 21.3137 29.5116 21.2172 29.5455 21.0913H27.6782V21.2549C27.7249 21.2885 27.7886 21.3598 27.8225 21.406H28.4336C28.4528 21.3752 28.4855 21.3489 28.5274 21.3303C28.5693 21.3118 28.6187 21.3019 28.6692 21.3019C28.7197 21.3019 28.769 21.3118 28.811 21.3303C28.8529 21.3489 28.8855 21.3752 28.9047 21.406Z" fill="white"/>
<path d="M29.9614 13.8623C30.0039 13.9126 30.0293 13.9588 29.9572 14.0427C29.8893 14.1014 29.8426 14.135 29.7704 14.1937C29.7407 14.2441 29.7195 14.3238 29.8171 14.349C30.0039 14.3993 30.3476 14.1811 30.3476 14.1769C30.4198 14.1266 30.3943 14.0343 30.39 14.0343C30.3476 13.9923 30.2585 14.0175 30.1991 14.0091C30.1694 14.0091 30.1524 13.9546 30.1948 13.8749C30.233 13.8245 30.25 13.7951 30.2755 13.7364C30.3009 13.6777 30.2755 13.6357 30.1736 13.6021C30.0675 13.5854 30.0251 13.5937 29.9105 13.6021C29.8468 13.6147 29.8256 13.6441 29.8129 13.7154C29.8171 13.8245 29.8893 13.8161 29.9614 13.8623ZM29.1551 11.2694C29.0957 11.3491 29.0532 11.412 29.1678 11.475C29.2867 11.5337 29.4649 11.6973 29.3885 11.8819C29.3461 12.0246 29.3885 12.1379 29.5201 11.9323C29.6559 11.7183 29.5498 11.4624 29.4182 11.2988C29.3036 11.1561 29.2272 11.1855 29.1551 11.2694ZM32.7284 8.34086C32.8897 8.47931 32.9788 8.43736 32.8769 8.2024C32.7581 7.96745 32.6435 7.71991 32.5374 7.49754C32.4228 7.26259 32.3931 7.31713 32.2616 7.48495C32.113 7.64858 32.1003 7.77445 32.1555 7.87095C32.4356 10.0652 32.5671 11.2106 32.5968 11.8736C32.6562 12.8385 32.4059 13.3798 31.4086 14.0007C31.086 14.2063 30.7211 14.4413 31.4977 14.2609C32.2234 14.0888 33 13.6357 33 11.9029C33 10.5981 32.6944 9.20095 32.7284 8.34086ZM31.5401 7.89612C31.451 8.03458 31.468 8.06395 31.5698 8.21499C31.6717 8.38281 31.7608 8.6849 31.7608 8.91985C31.7608 9.1548 31.8499 9.12543 31.8924 8.90726C31.939 8.69748 31.9221 8.28631 31.7905 7.99682C31.6589 7.69054 31.6123 7.79962 31.5401 7.89612ZM32.3931 12.4651C32.3634 12.2721 32.304 12.0791 32.0409 11.7099C31.7778 11.3491 31.5401 11.0177 31.3067 10.6988C31.2346 9.87225 31.1285 8.98698 31.1285 8.52127C31.2473 8.63035 31.3364 8.52127 31.277 8.34086C31.2176 8.16045 31.0988 7.67795 31.0139 7.47237C30.9375 7.27517 30.8526 7.31713 30.7338 7.49754C30.6319 7.67795 30.5598 7.76186 30.6319 7.89612C30.6617 8.69748 30.7762 9.47367 30.912 10.1743C30.6744 9.87225 30.4537 9.58275 30.25 9.31843C30.2373 9.01635 30.2076 8.71426 30.1906 8.40799C30.3221 8.50448 30.3816 8.47931 30.3094 8.2989C30.25 8.1059 30.0887 7.70312 30.0166 7.52691C29.9402 7.3465 29.8978 7.3465 29.7959 7.48495C29.6346 7.71991 29.588 7.88354 29.7238 8.1059C29.7365 8.2989 29.7662 8.50448 29.7789 8.6849C29.6474 8.52127 29.5328 8.35344 29.4267 8.2024C29.5583 8.26953 29.6644 8.16045 29.5158 8.03458C29.3843 7.91291 29.1042 7.70312 28.9896 7.55208C28.858 7.40104 28.7392 7.40104 28.7392 7.5395C28.7392 7.67795 28.7519 7.79962 28.7392 7.92549C28.7095 8.03458 28.7095 8.14786 28.8835 8.34086C29.223 8.72685 29.5455 9.12543 29.8553 9.49884C29.9699 10.8792 30.0463 11.7645 30.0166 12.3141C29.9996 12.6455 29.885 12.8385 29.6941 12.8931C29.5031 12.9644 29.3121 12.8385 29.1339 12.591C28.8113 12.1505 28.6968 12.2344 28.4464 12.6204C28.2087 12.977 28.0475 13.2833 27.9159 13.5434C27.8013 13.7909 27.5934 14.0133 27.4024 13.6819C27.2284 13.3504 27.1987 12.977 27.2114 12.7169C27.2114 12.4525 27.169 12.247 27.0671 12.6623C26.804 13.6819 26.9653 13.9042 27.2581 14.1224C27.6231 14.4287 27.7419 14.4538 27.9329 14.1937C28.3148 13.6944 28.4167 13.2539 28.6373 13.0064C28.8113 12.8134 28.8113 12.9644 28.9005 13.0609C29.1211 13.321 29.3121 13.4175 29.6177 13.4595C29.9275 13.514 30.4834 13.2665 30.441 12.3015C30.4113 11.7225 30.3688 10.9337 30.3094 10.0946C30.6022 10.4806 30.8654 10.8247 31.0733 11.1016C31.1752 11.6512 31.2346 12.1505 31.2049 12.549C31.1752 13.0064 31.277 13.0064 31.3789 12.5365C31.4086 12.3435 31.4086 11.9407 31.3661 11.4582C31.7608 11.9575 31.9942 12.2889 32.1555 12.5239C32.3337 12.8134 32.4356 13.0609 32.3931 12.4651ZM28.37 11.3785C28.37 11.282 28.4167 11.2526 28.5907 11.1141C28.7392 11.0051 29.1508 10.7282 29.2824 10.6023C29.414 10.4806 29.5158 10.3673 29.5455 10.5226C29.5583 10.6736 29.588 10.7282 29.4267 10.8121C29.2654 10.8792 28.841 11.1267 28.7095 11.2232C28.561 11.3365 28.37 11.475 28.37 11.3785ZM28.4167 9.67925C28.387 9.80512 28.2087 9.80512 28.2257 9.66667C28.2384 9.52821 28.2257 9.55339 28.2257 9.4443C28.2087 9.33521 28.3573 9.26389 28.4294 9.36039C28.5185 9.45689 28.6671 9.76317 28.7095 9.87225C28.7689 9.98134 28.7986 9.95616 28.7986 9.80512C28.7816 9.62471 28.7519 9.45689 28.7689 9.33521C28.7816 9.26389 28.8283 9.17998 28.9132 9.11285C29.0193 9.04572 29.0745 9.02894 29.1211 9.1548C29.1508 9.26389 29.2357 9.27648 29.1933 9.37717C29.1339 9.51143 29.0023 9.23872 28.9132 9.43171C28.8708 9.57017 28.9132 9.95616 28.9005 10.0946C28.9005 10.2163 28.841 10.3967 28.7392 10.1911C28.6671 10.0527 28.561 9.81771 28.4167 9.67925ZM27.4024 8.55903C27.6103 8.65553 27.831 8.71426 27.6698 8.47931C27.5042 8.25694 27.3727 7.88354 27.2878 7.60663C27.1817 7.33391 27.1562 7.3465 26.9907 7.58145C26.7446 7.93808 26.9653 8.28631 27.0204 8.69748C27.2284 10.1743 27.4321 11.6806 27.4915 12.0791C27.5509 12.5239 27.6231 12.8134 27.5042 13.2959C27.4618 13.4469 27.5212 13.4889 27.6231 13.3084C28.0347 12.5784 27.7546 11.9407 27.7122 11.5295C27.64 10.8918 27.4024 9.20935 27.36 8.53385M26.3924 8.4919C26.5069 8.5884 26.6427 8.5884 26.5664 8.38281C26.4942 8.17303 26.4348 7.92549 26.3627 7.69054C26.2905 7.45558 26.2438 7.40104 26.1547 7.51013C26.0529 7.636 25.9807 7.67795 25.9086 7.76186C25.8322 7.82899 25.8194 7.98003 25.9086 8.11849C26.2311 10.2037 26.2438 11.1267 26.2905 11.9029C26.3329 12.6749 26.4518 13.0315 25.9383 13.556C25.3781 14.1224 25.0428 14.2609 24.7924 14.3154C24.5123 14.3909 24.3978 14.5 24.6991 14.5C25.6836 14.5 25.7812 14.2399 26.1844 13.8203C26.5112 13.4805 26.6682 13.0483 26.6427 12.0246C26.613 10.2289 26.3457 9.45689 26.3924 8.4919ZM22.7087 13.7658C22.8573 13.6819 22.9294 13.6147 23.044 13.5728C23.1628 13.514 23.2519 13.5308 23.1628 13.7658C23.0737 14.0385 23.1204 14.1224 23.3113 14.0553C23.4853 14.0007 23.5872 13.9294 23.7357 13.8749C23.8673 13.8203 24.0158 13.8203 23.8079 13.9714C23.6466 14.0972 23.4132 14.2609 23.2816 14.2902C22.9888 14.3573 22.8403 14.2483 22.8997 14.0259C22.9591 13.8203 23.0015 13.7364 22.8275 13.8077C22.6196 13.8874 22.6366 13.8077 22.7087 13.7658ZM25.0725 9.07089C25.1277 9.23872 25.2041 9.31843 25.2465 9.11285C25.2762 8.93244 25.3356 8.87789 25.3654 9.07089C25.4078 9.26389 25.5266 9.23872 25.5563 9.0583C25.5988 8.87789 25.6582 8.78139 25.6879 8.97439C25.7176 9.17998 25.7006 9.2513 25.6709 9.31843C25.6582 9.37717 25.5394 9.4443 25.4502 9.36039C25.3484 9.27648 25.3187 9.27648 25.2465 9.3478C25.0853 9.48626 25.0258 9.38976 24.9961 9.19676C24.9834 9.02894 25.0428 8.96181 25.0725 9.07089ZM26.0529 12.549C25.9213 11.9281 25.3187 10.9337 24.4232 9.6373C24.3978 9.29326 24.3808 8.97439 24.3808 8.6849C24.5123 8.82335 24.6015 8.73944 24.559 8.55903C24.4699 8.24436 24.3383 7.98003 24.1771 7.62341C24.1177 7.47237 23.9564 7.43041 23.8843 7.64858C23.7782 7.91291 23.7654 7.96745 23.897 8.14786C23.8843 8.34086 23.9564 8.67231 23.9861 8.97439C23.8248 8.75203 23.6169 8.47931 23.4556 8.24436C23.706 8.34086 23.8546 8.26953 23.6339 8.05136C23.4132 7.81641 23.1034 7.58145 22.9124 7.41363C22.7215 7.25 22.6366 7.35909 22.6663 7.51013C22.679 7.66536 22.696 7.77445 22.679 7.89612C22.6663 8.02199 22.7087 8.1059 22.8997 8.17303C23.2816 8.64294 23.6636 9.12543 24.0158 9.62471C24.0583 10.0359 24.1474 10.4932 24.1898 10.8666C24.3086 11.7477 24.4826 12.8931 24.3383 13.3924C24.2195 13.7658 24.3383 13.9294 24.5293 13.363C24.7033 12.7966 24.6863 12.2595 24.5718 11.4162C24.5251 11.089 24.5123 10.6736 24.4699 10.2876C25.0853 11.1813 25.6412 12.0372 25.8916 12.633C26.0231 12.9518 26.142 13.019 26.0529 12.549ZM24.9537 7.51013C24.8943 7.62341 24.8519 7.70312 24.9664 7.78704C25.0853 7.87095 25.2635 8.09332 25.1871 8.34086C25.1447 8.53385 25.1871 8.6849 25.3187 8.40799C25.4502 8.11849 25.3484 7.77445 25.2168 7.55208C25.098 7.35909 25.0258 7.40104 24.9537 7.51013ZM20.6123 10.5226C20.5826 10.7156 20.625 10.8372 20.6971 10.9337C20.7735 11.0302 20.9178 11.0177 20.9645 10.9086C21.0069 10.7827 21.0367 10.7701 21.1258 10.8666C21.2276 10.9631 21.5629 10.8792 21.4016 10.3967C21.3295 10.2037 21.2998 10.2457 21.2998 10.4638C21.2998 10.8121 21.1809 10.8121 21.0494 10.4806C21.0069 10.3547 20.9475 10.3547 20.9348 10.5226C20.9348 10.8372 20.7863 10.8792 20.6971 10.5603C20.6674 10.4261 20.642 10.3128 20.6123 10.5226ZM22.6366 11.0177C22.9421 10.9505 22.7681 10.9212 22.5602 10.7953C22.3437 10.6736 22.2546 10.6736 22.2674 10.8121C22.2843 10.8918 22.2843 10.9757 22.314 11.0848C22.4159 11.0596 22.5177 11.047 22.6366 11.0177ZM22.034 10.3422C22.2674 10.0233 22.6493 10.1198 23.0907 10.4093C23.532 10.6988 23.3538 11.1561 22.9294 11.3911C22.8275 11.4456 22.696 11.5001 22.5305 11.5547C22.5772 11.6512 22.5177 11.6806 22.3862 11.5966C22.0042 11.7225 21.5035 11.9029 21.1555 12.0791C21.5799 12.1085 23.341 12.0791 23.6933 12.0372C24.0455 12.012 23.9861 12.0666 23.8843 12.356C23.7782 12.633 23.6636 12.6036 23.3708 12.6455C22.8997 12.7295 22.2079 12.9225 21.7114 13.1155C21.2106 13.3084 21.3889 13.6525 21.9024 13.8329C22.2971 13.9294 22.2546 13.9714 22.1825 14.1937C22.1231 14.3993 22.1231 14.4538 21.6393 14.3867C20.451 14.2063 20.0224 13.5854 19.8314 13.1029C19.1015 14.0804 18.38 14.6217 17.7052 14.4538C17.37 14.3867 17.2087 14.0972 17.179 13.7364C16.7079 13.942 16.1647 14.1224 15.4603 14.3154C15.299 14.3699 15.1674 14.3028 15.3881 14.2063C15.8549 13.9839 16.5891 13.6147 17.1917 13.2119C17.2512 12.9644 17.3827 12.6204 17.5143 12.3686C17.5864 12.2176 17.6331 12.2721 17.6331 12.398C17.6331 12.4945 17.6034 12.742 17.6161 12.9225C17.7222 12.8385 17.8665 12.7588 17.9387 12.6875C18.3503 12.3435 18.8044 12.1211 18.4988 11.5715C18.3673 11.3197 18.2612 11.1435 18.2187 11.0302C17.9556 10.9337 18.0278 10.7953 18.1466 10.5603C18.2612 10.3296 18.3079 10.2708 18.5413 10.5352C18.8808 10.9086 18.9232 11.0722 18.6898 11.047C19.0548 11.9281 18.9657 12.3854 18.397 12.9099C18.1296 13.17 17.8538 13.3798 17.5312 13.5434C17.5015 13.7784 17.6034 14.0133 18.0702 13.942C18.6898 13.8623 19.3773 13.1029 19.6701 12.5239C19.5386 12.0372 19.2458 11.1687 19.0718 10.7282C18.9826 10.5058 19.0718 10.4093 19.1439 10.2289C19.233 10.0527 19.2755 9.93938 19.3773 10.1911C19.4792 10.4261 19.8017 11.0177 19.9502 11.7225C20.1115 12.4274 20.0818 13.0315 20.4637 13.363C20.642 13.514 20.8584 13.6147 21.0961 13.6693C20.9178 13.1994 21.287 12.8385 21.7708 12.6749C21.478 12.4106 21.0197 12.4525 20.5062 12.4274C20.1285 12.4106 20.1709 12.3686 20.2728 12.054C20.3746 11.7351 20.4934 11.6931 20.7735 11.5841C21.1555 11.4456 21.5332 11.3071 21.9321 11.1981C21.6817 10.854 21.843 10.6023 22.034 10.3422ZM20.1836 7.51013C20.0818 7.60663 20.0818 7.62341 20.1709 7.74508C20.26 7.84158 20.3916 8.14786 20.3449 8.46253C20.3322 8.60098 20.3619 8.73944 20.434 8.4919C20.4934 8.24436 20.4765 7.89612 20.4043 7.69054C20.3322 7.48495 20.2431 7.43041 20.1836 7.51013ZM18.189 8.05136C17.9556 8.67231 17.9684 9.26389 18.4522 9.77575C18.7323 10.0652 18.936 9.92679 19.0548 9.60793C19.1863 9.30584 19.2755 9.00376 19.3646 8.79398C19.4495 8.5884 19.5258 8.63035 19.5089 8.82335C19.4664 9.20935 19.4367 9.8303 19.8484 10.0652C20.26 10.3002 20.8881 9.90162 21.1088 9.48626C21.7708 10.3128 22.3565 9.92679 22.4286 9.12543C22.4456 8.87789 22.3268 8.34086 22.2546 8.18981C22.1825 8.02199 22.2249 8.02199 22.3268 8.1059C22.4286 8.2024 22.6069 8.25694 22.5177 7.98003C22.4159 7.71991 22.2971 7.56887 22.1358 7.443C21.9915 7.31713 21.9618 7.38845 21.9024 7.48495C21.843 7.58145 21.8557 7.60663 21.7708 7.67795C21.6817 7.76186 21.6944 7.79962 21.7708 7.95486C22.017 8.55903 22.2546 9.4443 21.8557 9.52821C21.4907 9.59534 21.2573 8.84852 21.2404 8.52127C21.2276 8.07653 21.1682 7.70312 21.0791 7.47237C21.0154 7.32133 20.9772 7.25 20.9433 7.25C20.8839 7.25 20.799 7.48915 20.7438 7.58145C20.6844 7.67795 20.7438 7.70312 20.7863 7.89612C21.0069 8.86531 20.9772 9.30584 20.5062 9.55339C20.0394 9.81771 19.789 9.57017 19.789 9.26389C19.7762 8.96181 19.7762 8.5884 19.8187 8.31149C19.8484 8.03458 19.9205 7.99682 19.8187 7.85836C19.7168 7.70312 19.6277 7.76186 19.4961 7.93808C19.2033 8.32407 18.9105 8.97439 18.8044 9.27648C18.7025 9.59534 18.4988 9.48626 18.3503 9.22193C18.189 8.90726 18.206 8.34086 18.2612 8.11849C18.3206 7.89612 18.2909 7.79962 18.189 8.05136ZM17.5864 7.81641C17.6161 7.73249 17.544 7.64858 17.4846 7.77445C17.4421 7.87095 17.4252 7.93808 17.5143 7.99682C17.544 7.93808 17.5737 7.87095 17.5864 7.81641ZM17.2342 7.69054C17.4124 7.26259 17.9981 7.31713 17.8368 7.87095C17.8241 7.95486 17.7774 8.06395 17.7222 8.17303C17.8071 8.28631 17.7647 8.42477 17.5864 8.3954C17.3954 8.6849 17.0305 9.00376 16.3981 9.26389C16.1053 9.38976 16.0629 9.29326 16.2836 9.16739C16.7079 8.90726 17.1026 8.5884 17.353 8.25694C17.162 8.1059 17.162 7.88354 17.2342 7.69054ZM17.1323 9.22193C16.9583 9.43171 16.8268 9.7338 17.0729 9.91421C17.2087 10.0233 17.4846 9.90162 17.5864 9.69184C17.6925 9.47367 17.6458 9.4443 17.4718 9.62471C17.2215 9.88484 16.9711 9.64988 17.2342 9.29326C17.4124 9.04572 17.3106 8.98698 17.1323 9.22193ZM16.7377 12.2595C16.7674 12.356 16.7504 12.5784 16.7079 12.6749C16.6485 12.7966 16.7079 12.8553 16.7971 12.7001C16.8819 12.5365 16.9414 12.3435 16.8989 12.1505C16.8819 12.012 16.8819 11.9701 16.7504 11.9155C16.6061 11.861 16.5594 11.9407 16.517 12.054C16.4576 12.1924 16.5297 12.3435 16.7377 12.2595ZM14.4757 11.3491C14.2126 11.4162 14.1701 11.3197 14.1829 11.1687C14.1998 11.0177 14.2126 10.9757 14.3908 11.047C14.463 11.0722 14.5521 11.1687 14.6412 11.2946C14.5818 11.3071 14.5224 11.3365 14.4757 11.3491ZM14.6964 10.7282C14.4333 10.4806 14.2126 10.4638 13.9919 10.7701C13.7882 11.0596 13.8009 11.1267 13.8179 11.3911C13.8306 11.6512 13.7755 11.7477 13.9919 11.819C14.1998 11.8861 14.289 11.861 14.4205 11.819C14.5224 11.7896 14.6667 11.7477 14.8152 11.6931C14.8449 11.8316 14.8279 11.9826 14.7431 12.0959C14.1998 12.7001 13.3638 13.1448 12.9946 12.742C12.7909 12.5239 12.7018 12.1756 12.7612 11.7645C12.8206 11.4162 12.7018 11.5715 12.6593 11.6931C12.5278 12.0959 12.4811 12.6749 12.6593 12.9644C12.9097 13.363 13.3044 13.5434 13.9367 13.2833C14.5648 13.019 15.1802 12.549 15.1547 11.9029C15.1547 11.7771 15.1377 11.668 15.1377 11.5841C15.1971 11.5547 15.299 11.4876 15.3711 11.4582C15.3881 11.6806 15.3584 11.9575 15.3711 12.1756C15.4008 12.8805 15.108 13.0861 14.8449 13.2833C14.4757 13.556 13.9792 13.7364 13.5548 13.8077C12.5405 13.942 12.3071 13.3378 12.3198 12.5239C12.3198 12.398 12.3792 12.3141 12.3792 12.1337C12.3665 11.7896 12.3198 11.8442 12.2052 12.1924C12.0992 12.5239 11.9676 13.2959 12.3071 13.9294C12.6593 14.5671 13.8476 14.3867 14.7728 13.9714C15.6809 13.556 15.7828 12.7714 15.7404 11.9826C15.7404 11.7771 15.7234 11.5547 15.7106 11.3197C15.7404 11.3071 15.7531 11.282 15.7701 11.2652C15.9016 11.668 16.517 11.5547 16.7079 11.3197C16.8098 11.2106 16.8098 11.1981 16.8989 11.3197C17.0305 11.5001 17.4846 11.5547 17.6034 11.3071C17.7052 11.047 17.6925 10.7953 17.6628 10.6023C17.6331 10.4093 17.5864 10.4261 17.4549 10.5226C17.3106 10.6317 17.4252 10.6442 17.4421 10.7827C17.5015 11.3071 17.0177 11.2652 16.9583 10.7282C16.9286 10.3967 16.8692 10.5226 16.8268 10.6736C16.6188 11.3197 16.0162 11.4456 16.0756 10.6988C16.0926 10.4806 15.9441 10.5477 15.8719 10.6317C15.7998 10.6862 15.7404 10.7575 15.6682 10.7953C15.6215 10.1911 15.5791 9.49884 15.5027 8.67231C15.6809 8.87789 15.8422 8.64294 15.7234 8.40799C15.6385 8.22758 15.5027 7.82899 15.4178 7.60663C15.3414 7.38845 15.299 7.45558 15.108 7.636C14.934 7.82899 14.9637 7.87095 15.0486 8.06395C15.0189 8.2989 15.0656 8.53385 15.125 9.01635C15.1674 9.36039 15.2863 10.0778 15.3414 10.9883C15.2566 11.0302 15.125 11.1141 15.0359 11.1561C14.9637 11.0051 14.8576 10.8792 14.6964 10.7282ZM11.5432 12.4819C11.5559 12.6204 11.5559 12.7169 11.5559 12.7714C11.5559 12.8679 11.5008 12.9644 11.4711 13.0861C11.2928 13.6819 11.5559 13.9714 11.7045 13.749C11.836 13.5308 11.9082 13.556 11.8954 13.7364C11.8827 14.3322 11.2801 14.3699 11.2334 13.8749C11.1613 13.0861 11.3522 12.9644 11.4117 12.7001C11.4541 12.5239 11.5135 12.3854 11.5432 12.4819ZM11.2334 11.6092C11.662 11.1267 12.2052 10.8792 12.4811 10.7953C12.6593 10.7407 12.7485 10.6736 12.7485 10.8372C12.7612 10.9883 12.7485 11.0051 12.5999 11.047C12.2604 11.1267 11.5559 11.4582 11.3225 11.626C11.2079 11.7099 11.0594 11.8064 11.2334 11.6092ZM13.6269 7.45558C13.5845 7.56887 13.6142 7.70312 13.6863 7.78704C13.7585 7.88354 13.89 7.88354 13.9792 7.81641C14.0513 7.73249 14.0513 7.71991 14.1277 7.82899C14.1701 7.91291 14.3144 7.88354 14.3611 7.79962C14.3908 7.73249 14.4333 7.66536 14.3908 7.56887C14.3441 7.47237 14.3441 7.49754 14.3144 7.60663C14.289 7.78704 14.1107 7.74508 14.098 7.52691C14.098 7.31713 14.0513 7.43041 13.9919 7.56887C13.89 7.77445 13.7458 7.73249 13.7458 7.55208C13.7458 7.40104 13.6991 7.27517 13.6269 7.45558ZM12.9946 10.3547C13.0413 10.854 13.1856 11.7771 13.1856 12.0959C13.2025 12.4274 13.245 12.3309 13.3341 12.1505C13.4232 11.9701 13.4062 11.7771 13.3935 11.5127C13.3638 11.24 13.3468 10.7827 13.2874 10.1617C13.4062 10.0778 13.5081 9.93938 13.5548 9.85966C13.6694 9.64988 13.6991 9.66667 13.7458 9.8303C13.8306 10.1617 14.1829 10.3841 14.6539 10.0652C15.0953 9.77575 14.9043 9.16739 14.7133 8.50448C14.8746 8.53385 14.934 8.40799 14.8279 8.24436C14.7855 8.14786 14.6964 8.06395 14.6242 7.98003C14.5521 7.89612 14.4757 7.82899 14.4035 7.91291C14.3441 7.99682 14.272 8.06395 14.2296 8.11849C14.1829 8.17303 14.1829 8.22758 14.2423 8.36603C14.4205 8.75203 14.5351 9.16739 14.5648 9.40234C14.6115 9.62471 14.5224 9.67925 14.3611 9.67925C14.1998 9.67925 13.9792 9.6373 13.89 9.30584C13.8009 8.97439 13.7585 8.82335 13.7755 8.60098C13.7882 8.38281 13.8179 8.22758 13.6566 8.0094C13.4784 7.78704 13.4657 7.82899 13.4232 7.93808C13.3935 8.06395 13.3341 8.24436 13.3935 8.44994C13.4657 8.75203 13.5081 9.01635 13.5548 9.19676C13.5845 9.31843 13.4487 9.58275 13.262 9.72121C13.2153 9.30584 13.1431 8.75203 13.1134 8.31149C13.3638 8.22758 13.2323 7.91291 13.0243 7.56887C12.88 7.30454 12.8206 7.41363 12.7187 7.58145C12.6127 7.74508 12.689 7.81641 12.7612 7.95486C12.7018 8.06395 12.8036 8.22758 12.8503 8.53385C12.863 8.72685 12.9097 9.27648 12.9522 9.76317C12.7485 9.76317 12.6296 9.6373 12.5575 9.47367C12.3962 9.12543 12.4387 8.81076 12.5108 8.60098C12.5872 8.3954 12.6593 8.07653 12.5278 7.99682C12.409 7.91291 12.2477 8.0094 12.1458 8.16045C11.9676 8.40799 11.8063 8.76881 11.7936 9.14222C11.7766 9.29326 11.7342 9.58275 11.662 9.69184C11.6026 9.80512 11.5008 9.81771 11.3947 9.64988C11.2207 9.38976 11.1613 8.72685 11.1782 8.38281C11.1782 8.21499 11.1316 8.18981 11.0721 8.38281C11.0212 8.55903 11 8.73944 11 8.91146C11 9.39815 11.1443 9.84288 11.2631 10.0652C11.4244 10.3673 11.6323 10.3002 11.7766 10.0527C11.9973 9.67925 11.9082 9.3478 12.1161 8.79398C12.235 8.44994 12.2774 8.71426 12.235 8.91985C12.1289 9.47367 12.1586 10.3673 12.9946 10.3547ZM11.7342 8.18981C11.8827 7.79962 11.8954 7.45558 11.7215 7.58145C11.5729 7.69054 11.4838 7.58145 11.6026 7.45558C11.7469 7.27517 11.9379 7.22063 11.9846 7.52691C11.9973 7.76186 11.8233 8.05136 11.7342 8.18981Z" fill="white"/>
</g>
<defs>
<clipPath id="clip0_213_34">
<rect width="44" height="29" fill="white"/>
</clipPath>
</defs>
</svg>
